# xmcd
#
# Track frame offsets:
#	182
#	15829
#	27040
#	37996
#	51095
#	59146
#	68269
#	78269
#	90048
#	102980
#	114902
#	126578
#	140187
#	151513
#	167084
#	180754
#	187421
#
# Disc length: 2610 seconds
# Revision: 0
# Processed by: cddbd v1.5.2PL0 Copyright (c) Steve Scherf et al.
# Submitted via: dBpowerAMP V12.0
#
DISCID=cb0a3011
DTITLE=The Bucking Mules - Smoke Behind the Clouds
DYEAR=2017
DGENRE=
TTITLE0=Smoke Behind the Clouds
TTITLE1=John Cooper's Tune
TTITLE2=Georgia Belles
TTITLE3=Jasper Jail
TTITLE4=Irish Washerwoman
TTITLE5=Railroad
TTITLE6=Fire On the Mountain
TTITLE7=Lexington
TTITLE8=More Good Women Gone Wrong
TTITLE9=Wild Geese at Flight
TTITLE10=Ruffled Drawers
TTITLE11=Girl On the Greenbriar Shore
TTITLE12=Altamont
TTITLE13=The Soldier and the Lady
TTITLE14=Climbing the Golden Stairs
TTITLE15=My Wife Died On Saturday Night
TTITLE16=Greenback
EXTD=
EXTT0=
EXTT1=
EXTT2=
EXTT3=
EXTT4=
EXTT5=
EXTT6=
EXTT7=
EXTT8=
EXTT9=
EXTT10=
EXTT11=
EXTT12=
EXTT13=
EXTT14=
EXTT15=
EXTT16=
PLAYORDER=
